<?xml version="1.0" encoding="UTF-8"?>
<svg width="119px" height="119px" viewBox="0 0 119 119" version="1.1" xmlns="http://www.w3.org/2000/svg" xmlns:xlink="http://www.w3.org/1999/xlink">
    <!-- Generator: Sketch 41.2 (35397) - http://www.bohemiancoding.com/sketch -->
    <title>Page 1</title>
    <desc>Created with Sketch.</desc>
    <defs></defs>
    <g id="Welcome" stroke="none" stroke-width="1" fill="none" fill-rule="evenodd">
        <g id="Desktop-HD-Copy-3" transform="translate(-661.000000, -453.000000)" fill="#FF6347">
            <path d="M720.375,453 C687.636,453 661,479.636 661,512.375 C661,545.114 687.636,571.75 720.375,571.75 C729.386,571.75 738.044,569.78 746.109,565.896 C750.774,563.649 752.735,558.046 750.488,553.382 C748.242,548.716 742.638,546.756 737.975,549.003 C732.467,551.655 726.546,553 720.375,553 C697.974,553 679.75,534.775 679.75,512.375 C679.75,489.974 697.974,471.75 720.375,471.75 C742.775,471.75 761,489.974 761,512.375 L761,562.375 C761,567.553 765.197,571.75 770.375,571.75 C775.553,571.75 779.75,567.553 779.75,562.375 L779.75,512.375 C779.75,479.636 753.114,453 720.375,453" id="Page-1"></path>
        </g>
    </g>
</svg>